G04*
G04 #@! TF.GenerationSoftware,Altium Limited,Altium Designer,19.1.5 (86)*
G04*
G04 Layer_Color=8388736*
%FSLAX25Y25*%
%MOIN*%
G70*
G01*
G75*
%ADD22R,0.03439X0.05725*%
G04:AMPARAMS|DCode=23|XSize=57.25mil|YSize=34.39mil|CornerRadius=17.19mil|HoleSize=0mil|Usage=FLASHONLY|Rotation=270.000|XOffset=0mil|YOffset=0mil|HoleType=Round|Shape=RoundedRectangle|*
%AMROUNDEDRECTD23*
21,1,0.05725,0.00000,0,0,270.0*
21,1,0.02287,0.03439,0,0,270.0*
1,1,0.03439,0.00000,-0.01143*
1,1,0.03439,0.00000,0.01143*
1,1,0.03439,0.00000,0.01143*
1,1,0.03439,0.00000,-0.01143*
%
%ADD23ROUNDEDRECTD23*%
G04:AMPARAMS|DCode=24|XSize=57.25mil|YSize=123.31mil|CornerRadius=17.18mil|HoleSize=0mil|Usage=FLASHONLY|Rotation=270.000|XOffset=0mil|YOffset=0mil|HoleType=Round|Shape=RoundedRectangle|*
%AMROUNDEDRECTD24*
21,1,0.05725,0.08896,0,0,270.0*
21,1,0.02290,0.12331,0,0,270.0*
1,1,0.03435,-0.04448,-0.01145*
1,1,0.03435,-0.04448,0.01145*
1,1,0.03435,0.04448,0.01145*
1,1,0.03435,0.04448,-0.01145*
%
%ADD24ROUNDEDRECTD24*%
%ADD25R,0.04700X0.01200*%
%ADD26R,0.01200X0.04700*%
%ADD32R,0.04343X0.03950*%
%ADD33R,0.05800X0.05800*%
%ADD34R,0.05918X0.04737*%
%ADD35R,0.04737X0.05918*%
%ADD36O,0.07493X0.03162*%
%ADD37R,0.08674X0.08674*%
%ADD38R,0.05524X0.01981*%
%ADD39R,0.12611X0.11430*%
%ADD40R,0.03950X0.04343*%
%ADD41C,0.06800*%
%ADD42C,0.08674*%
%ADD43C,0.14580*%
%ADD44O,0.12611X0.06706*%
%ADD45C,0.02769*%
D22*
X178347Y56398D02*
D03*
D23*
X169291D02*
D03*
X160236D02*
D03*
D24*
X169291Y32185D02*
D03*
D25*
X83494Y61024D02*
D03*
Y59055D02*
D03*
Y57087D02*
D03*
Y55118D02*
D03*
Y53150D02*
D03*
Y51181D02*
D03*
Y49213D02*
D03*
Y47244D02*
D03*
Y45276D02*
D03*
Y43307D02*
D03*
Y41339D02*
D03*
Y39370D02*
D03*
Y37402D02*
D03*
Y35433D02*
D03*
Y33465D02*
D03*
Y31496D02*
D03*
X128770D02*
D03*
Y33465D02*
D03*
Y35433D02*
D03*
Y37402D02*
D03*
Y39370D02*
D03*
Y41339D02*
D03*
Y43307D02*
D03*
Y45276D02*
D03*
Y47244D02*
D03*
Y49213D02*
D03*
Y51181D02*
D03*
Y53150D02*
D03*
Y55118D02*
D03*
Y57087D02*
D03*
Y59055D02*
D03*
Y61024D02*
D03*
D26*
X91368Y23622D02*
D03*
X93337D02*
D03*
X95305D02*
D03*
X97274D02*
D03*
X99242D02*
D03*
X101211D02*
D03*
X103179D02*
D03*
X105148D02*
D03*
X107116D02*
D03*
X109085D02*
D03*
X111053D02*
D03*
X113022D02*
D03*
X114990D02*
D03*
X116959D02*
D03*
X118927D02*
D03*
X120896D02*
D03*
Y68898D02*
D03*
X118927D02*
D03*
X116959D02*
D03*
X114990D02*
D03*
X113022D02*
D03*
X111053D02*
D03*
X109085D02*
D03*
X107116D02*
D03*
X105148D02*
D03*
X103179D02*
D03*
X101211D02*
D03*
X99242D02*
D03*
X97274D02*
D03*
X95305D02*
D03*
X93337D02*
D03*
X91368D02*
D03*
D32*
X138779Y65266D02*
D03*
Y70866D02*
D03*
X148622Y65266D02*
D03*
Y70866D02*
D03*
X165219Y65266D02*
D03*
Y70866D02*
D03*
X67913Y50197D02*
D03*
Y55797D02*
D03*
X59055Y50197D02*
D03*
Y55797D02*
D03*
X46260Y51181D02*
D03*
Y45581D02*
D03*
D33*
X38386Y64003D02*
D03*
X29986D02*
D03*
X126011Y9843D02*
D03*
X134411D02*
D03*
X118110D02*
D03*
X109710D02*
D03*
X38386Y56102D02*
D03*
X29986D02*
D03*
D34*
X157289Y72008D02*
D03*
X157250Y64961D02*
D03*
X173228Y71850D02*
D03*
X173189Y64803D02*
D03*
D35*
X150748Y56063D02*
D03*
X143701Y56102D02*
D03*
X143543Y47267D02*
D03*
X150591Y47227D02*
D03*
X143543Y38431D02*
D03*
X150591Y38392D02*
D03*
X143543Y29595D02*
D03*
X150591Y29556D02*
D03*
X143701Y20760D02*
D03*
X150748Y20720D02*
D03*
X165410Y23597D02*
D03*
X158363Y23637D02*
D03*
X29773Y47754D02*
D03*
X36820Y47715D02*
D03*
D36*
X35433Y24843D02*
D03*
Y19842D02*
D03*
Y14842D02*
D03*
Y9843D02*
D03*
X63386Y24843D02*
D03*
Y19842D02*
D03*
Y14842D02*
D03*
Y9843D02*
D03*
D37*
X70079Y39370D02*
D03*
X55905D02*
D03*
D38*
X20669Y47244D02*
D03*
Y49213D02*
D03*
Y51181D02*
D03*
Y57087D02*
D03*
Y59055D02*
D03*
Y61024D02*
D03*
Y62992D02*
D03*
Y72835D02*
D03*
Y70866D02*
D03*
Y68898D02*
D03*
Y66929D02*
D03*
Y64961D02*
D03*
Y55118D02*
D03*
Y53150D02*
D03*
D39*
X13347Y80433D02*
D03*
Y39646D02*
D03*
D40*
X51181Y73819D02*
D03*
X45581D02*
D03*
X45662Y66755D02*
D03*
X51262D02*
D03*
X29528Y39785D02*
D03*
X35128D02*
D03*
X35433Y79724D02*
D03*
X29833D02*
D03*
X29291Y71676D02*
D03*
X34891D02*
D03*
D41*
X18701Y6890D02*
D03*
X144685Y8858D02*
D03*
X90551Y8858D02*
D03*
X141732Y81693D02*
D03*
X98425Y8858D02*
D03*
X67913Y80709D02*
D03*
X75787Y80709D02*
D03*
X74803Y8858D02*
D03*
X82677D02*
D03*
X132874Y81693D02*
D03*
X152559Y8858D02*
D03*
X171260Y81693D02*
D03*
X162402D02*
D03*
X60039Y80709D02*
D03*
X18701Y15748D02*
D03*
Y24606D02*
D03*
X9843Y6890D02*
D03*
Y15748D02*
D03*
Y24606D02*
D03*
D42*
X112205Y80709D02*
D03*
X151575Y81693D02*
D03*
X43307Y36417D02*
D03*
D43*
X185039Y78740D02*
D03*
X166339Y9843D02*
D03*
D44*
X186024Y21850D02*
D03*
Y66732D02*
D03*
D45*
Y35433D02*
D03*
Y53150D02*
D03*
X70866Y13780D02*
D03*
X125000Y14764D02*
D03*
X135827Y26575D02*
D03*
X84646Y17717D02*
D03*
X29528Y21654D02*
D03*
X42323Y10827D02*
D03*
X55118Y19685D02*
D03*
X72835Y16732D02*
D03*
X47244Y31496D02*
D03*
X94488Y28543D02*
D03*
X76772Y63976D02*
D03*
Y47244D02*
D03*
X50197Y77756D02*
D03*
X62992Y55797D02*
D03*
X24606Y61023D02*
D03*
X14764Y57087D02*
D03*
Y62008D02*
D03*
X88582Y34449D02*
D03*
X134843Y55118D02*
D03*
Y51181D02*
D03*
X131890Y65945D02*
D03*
X156137Y59414D02*
D03*
X46260Y56102D02*
D03*
X44291Y62008D02*
D03*
X131890Y16732D02*
D03*
X40354Y69882D02*
D03*
X104331Y11811D02*
D03*
X182087Y60039D02*
D03*
M02*
