G04*
G04 #@! TF.GenerationSoftware,Altium Limited,Altium Designer,19.1.5 (86)*
G04*
G04 Layer_Physical_Order=2*
G04 Layer_Color=16711680*
%FSLAX25Y25*%
%MOIN*%
G70*
G01*
G75*
%ADD10C,0.01000*%
%ADD46C,0.06000*%
%ADD47C,0.07874*%
%ADD48C,0.13780*%
%ADD49O,0.11811X0.05906*%
%ADD50C,0.01968*%
%ADD51R,0.04331X0.07087*%
%ADD52R,0.07874X0.04724*%
G36*
X194643Y2208D02*
X169853D01*
X169727Y2708D01*
X170743Y3251D01*
X171944Y4237D01*
X172930Y5438D01*
X173663Y6809D01*
X174114Y8296D01*
X174217Y9342D01*
X158460D01*
X158563Y8296D01*
X159014Y6809D01*
X159747Y5438D01*
X160733Y4237D01*
X161934Y3251D01*
X162950Y2708D01*
X162824Y2208D01*
X140847D01*
X140694Y2699D01*
X140694Y2708D01*
X143313Y5327D01*
X143696Y5168D01*
X144685Y5038D01*
X145674Y5168D01*
X146595Y5550D01*
X147386Y6157D01*
X147993Y6948D01*
X148375Y7869D01*
X148869D01*
X149251Y6948D01*
X149858Y6157D01*
X150649Y5550D01*
X151570Y5168D01*
X152559Y5038D01*
X153548Y5168D01*
X154469Y5550D01*
X155260Y6157D01*
X155867Y6948D01*
X156249Y7869D01*
X156379Y8858D01*
X156249Y9847D01*
X155867Y10768D01*
X155260Y11559D01*
X154469Y12167D01*
X153548Y12548D01*
X152559Y12678D01*
X151570Y12548D01*
X150649Y12167D01*
X149858Y11559D01*
X149251Y10768D01*
X148869Y9847D01*
X148375D01*
X147993Y10768D01*
X147386Y11559D01*
X146595Y12167D01*
X145674Y12548D01*
X144685Y12678D01*
X143696Y12548D01*
X142775Y12167D01*
X141984Y11559D01*
X141377Y10768D01*
X140995Y9847D01*
X140865Y8858D01*
X140995Y7869D01*
X141331Y7058D01*
X139220Y4947D01*
X129331D01*
Y12795D01*
X126525D01*
X126374Y13295D01*
X126431Y13333D01*
X126869Y13990D01*
X126924Y14264D01*
X123076D01*
X123131Y13990D01*
X123569Y13333D01*
X123626Y13295D01*
X123475Y12795D01*
X123425D01*
Y4947D01*
X115807D01*
X114764Y5990D01*
Y12795D01*
X108858D01*
Y4134D01*
X112908D01*
X114334Y2708D01*
X114333Y2699D01*
X114181Y2208D01*
X2208D01*
Y86375D01*
X148745D01*
X148915Y85875D01*
X148054Y85214D01*
X147262Y84183D01*
X146765Y82982D01*
X146661Y82193D01*
X156489D01*
X156385Y82982D01*
X155887Y84183D01*
X155096Y85214D01*
X154235Y85875D01*
X154404Y86375D01*
X181525D01*
X181650Y85875D01*
X180635Y85332D01*
X179434Y84346D01*
X178447Y83145D01*
X177715Y81774D01*
X177264Y80287D01*
X177161Y79240D01*
X192918D01*
X192815Y80287D01*
X192364Y81774D01*
X191631Y83145D01*
X190645Y84346D01*
X189444Y85332D01*
X188428Y85875D01*
X188553Y86375D01*
X194643D01*
Y2208D01*
D02*
G37*
%LPC*%
G36*
X171760Y85662D02*
Y82193D01*
X175229D01*
X175157Y82737D01*
X174754Y83710D01*
X174113Y84546D01*
X173277Y85187D01*
X172304Y85590D01*
X171760Y85662D01*
D02*
G37*
G36*
X170760D02*
X170216Y85590D01*
X169243Y85187D01*
X168407Y84546D01*
X167766Y83710D01*
X167363Y82737D01*
X167291Y82193D01*
X170760D01*
Y85662D01*
D02*
G37*
G36*
X75787Y84529D02*
X74799Y84399D01*
X73877Y84017D01*
X73086Y83410D01*
X72479Y82619D01*
X72097Y81697D01*
X71603Y81697D01*
X71222Y82619D01*
X70615Y83410D01*
X69823Y84017D01*
X68902Y84399D01*
X67913Y84529D01*
X66925Y84399D01*
X66003Y84017D01*
X65212Y83410D01*
X64605Y82619D01*
X64223Y81697D01*
X63729Y81697D01*
X63348Y82619D01*
X62741Y83410D01*
X61949Y84017D01*
X61028Y84399D01*
X60039Y84529D01*
X59051Y84399D01*
X58129Y84017D01*
X57338Y83410D01*
X56731Y82619D01*
X56349Y81697D01*
X56219Y80709D01*
X56349Y79720D01*
X56731Y78799D01*
X57338Y78008D01*
X58129Y77400D01*
X59051Y77019D01*
X60039Y76889D01*
X61028Y77019D01*
X61949Y77400D01*
X62346Y77705D01*
X62676Y77328D01*
X56543Y71194D01*
X41579D01*
X41046Y71551D01*
X40354Y71688D01*
X39663Y71551D01*
X39077Y71159D01*
X38686Y70573D01*
X38548Y69882D01*
X38686Y69191D01*
X39077Y68605D01*
X39663Y68213D01*
X40354Y68076D01*
X41046Y68213D01*
X41579Y68569D01*
X57087D01*
X57589Y68669D01*
X58015Y68954D01*
X66327Y77266D01*
X66925Y77019D01*
X67913Y76889D01*
X68902Y77019D01*
X69823Y77400D01*
X70220Y77705D01*
X70550Y77328D01*
X48690Y55468D01*
X48431Y55494D01*
X48049Y56015D01*
X48066Y56102D01*
X47929Y56794D01*
X47537Y57380D01*
X46951Y57771D01*
X46403Y57880D01*
Y58725D01*
X46303Y59227D01*
X46018Y59653D01*
X45604Y60067D01*
Y60783D01*
X45960Y61317D01*
X46098Y62008D01*
X45960Y62699D01*
X45569Y63285D01*
X44983Y63677D01*
X44291Y63814D01*
X44114Y63779D01*
X43670Y64223D01*
X43244Y64508D01*
X42742Y64608D01*
X20930D01*
X20428Y64508D01*
X20002Y64223D01*
X19099Y63320D01*
X15988D01*
X15455Y63677D01*
X14764Y63814D01*
X14073Y63677D01*
X13487Y63285D01*
X13095Y62699D01*
X12957Y62008D01*
X13095Y61317D01*
X13487Y60731D01*
X14073Y60339D01*
X14764Y60202D01*
X15455Y60339D01*
X15988Y60695D01*
X19643D01*
X20145Y60795D01*
X20571Y61080D01*
X21474Y61983D01*
X22305D01*
X22644Y61523D01*
X26568D01*
X26908Y61983D01*
X42198D01*
X42562Y61618D01*
X42623Y61317D01*
X42979Y60783D01*
Y59524D01*
X43079Y59021D01*
X43363Y58596D01*
X43778Y58181D01*
Y57272D01*
X43878Y56770D01*
X44162Y56344D01*
X44466Y56040D01*
X44545Y55643D01*
X44214Y55143D01*
X18563D01*
X16558Y57149D01*
X16433Y57778D01*
X16041Y58364D01*
X15455Y58755D01*
X14764Y58893D01*
X14073Y58755D01*
X13487Y58364D01*
X13095Y57778D01*
X12957Y57087D01*
X13095Y56395D01*
X13487Y55809D01*
X14073Y55418D01*
X14701Y55293D01*
X17091Y52903D01*
X17517Y52618D01*
X18020Y52518D01*
X48909D01*
X49412Y52618D01*
X49838Y52903D01*
X74201Y77266D01*
X74799Y77019D01*
X75787Y76889D01*
X76776Y77019D01*
X77697Y77400D01*
X78489Y78008D01*
X79096Y78799D01*
X79477Y79720D01*
X79607Y80709D01*
X79477Y81697D01*
X79096Y82619D01*
X78489Y83410D01*
X77697Y84017D01*
X76776Y84399D01*
X75787Y84529D01*
D02*
G37*
G36*
X112705Y85622D02*
Y81209D01*
X117119D01*
X117015Y81998D01*
X116517Y83198D01*
X115726Y84230D01*
X114694Y85021D01*
X113494Y85519D01*
X112705Y85622D01*
D02*
G37*
G36*
X111705D02*
X110916Y85519D01*
X109715Y85021D01*
X108684Y84230D01*
X107892Y83198D01*
X107395Y81998D01*
X107291Y81209D01*
X111705D01*
Y85622D01*
D02*
G37*
G36*
X50697Y79680D02*
Y78256D01*
X52121D01*
X52066Y78530D01*
X51627Y79186D01*
X50971Y79625D01*
X50697Y79680D01*
D02*
G37*
G36*
X49697D02*
X49423Y79625D01*
X48766Y79186D01*
X48328Y78530D01*
X48273Y78256D01*
X49697D01*
Y79680D01*
D02*
G37*
G36*
X162402Y85513D02*
X161413Y85383D01*
X160492Y85001D01*
X159700Y84394D01*
X159093Y83603D01*
X158712Y82682D01*
X158581Y81693D01*
X158712Y80704D01*
X159093Y79783D01*
X159700Y78992D01*
X160492Y78385D01*
X161413Y78003D01*
X162402Y77873D01*
X163390Y78003D01*
X164312Y78385D01*
X165103Y78992D01*
X165710Y79783D01*
X166092Y80704D01*
X166222Y81693D01*
X166092Y82682D01*
X165710Y83603D01*
X165103Y84394D01*
X164312Y85001D01*
X163390Y85383D01*
X162402Y85513D01*
D02*
G37*
G36*
X141732Y85513D02*
X140744Y85383D01*
X139822Y85001D01*
X139031Y84394D01*
X138424Y83603D01*
X138042Y82682D01*
X137912Y81693D01*
X138042Y80704D01*
X138424Y79783D01*
X139031Y78992D01*
X139822Y78385D01*
X140744Y78003D01*
X141732Y77873D01*
X142721Y78003D01*
X143642Y78385D01*
X144433Y78992D01*
X145041Y79783D01*
X145422Y80704D01*
X145552Y81693D01*
X145422Y82682D01*
X145041Y83603D01*
X144433Y84394D01*
X143642Y85001D01*
X142721Y85383D01*
X141732Y85513D01*
D02*
G37*
G36*
X132874D02*
X131885Y85383D01*
X130964Y85001D01*
X130173Y84394D01*
X129566Y83603D01*
X129184Y82682D01*
X129054Y81693D01*
X129184Y80704D01*
X129566Y79783D01*
X130173Y78992D01*
X130964Y78385D01*
X131885Y78003D01*
X132874Y77873D01*
X133863Y78003D01*
X134784Y78385D01*
X135575Y78992D01*
X136182Y79783D01*
X136564Y80704D01*
X136694Y81693D01*
X136564Y82682D01*
X136182Y83603D01*
X135575Y84394D01*
X134784Y85001D01*
X133863Y85383D01*
X132874Y85513D01*
D02*
G37*
G36*
X175229Y81193D02*
X171760D01*
Y77724D01*
X172304Y77796D01*
X173277Y78199D01*
X174113Y78840D01*
X174754Y79676D01*
X175157Y80649D01*
X175229Y81193D01*
D02*
G37*
G36*
X170760D02*
X167291D01*
X167363Y80649D01*
X167766Y79676D01*
X168407Y78840D01*
X169243Y78199D01*
X170216Y77796D01*
X170760Y77724D01*
Y81193D01*
D02*
G37*
G36*
X156489D02*
X152075D01*
Y76779D01*
X152864Y76883D01*
X154065Y77380D01*
X155096Y78172D01*
X155887Y79203D01*
X156385Y80404D01*
X156489Y81193D01*
D02*
G37*
G36*
X151075D02*
X146661D01*
X146765Y80404D01*
X147262Y79203D01*
X148054Y78172D01*
X149085Y77380D01*
X150286Y76883D01*
X151075Y76779D01*
Y81193D01*
D02*
G37*
G36*
X52121Y77256D02*
X50697D01*
Y75832D01*
X50971Y75887D01*
X51627Y76325D01*
X52066Y76982D01*
X52121Y77256D01*
D02*
G37*
G36*
X49697D02*
X48273D01*
X48328Y76982D01*
X48766Y76325D01*
X49423Y75887D01*
X49697Y75832D01*
Y77256D01*
D02*
G37*
G36*
X117119Y80209D02*
X112705D01*
Y75795D01*
X113494Y75899D01*
X114694Y76396D01*
X115726Y77188D01*
X116517Y78219D01*
X117015Y79420D01*
X117119Y80209D01*
D02*
G37*
G36*
X111705D02*
X107291D01*
X107395Y79420D01*
X107892Y78219D01*
X108684Y77188D01*
X109715Y76396D01*
X110916Y75899D01*
X111705Y75795D01*
Y80209D01*
D02*
G37*
G36*
X192918Y78240D02*
X177161D01*
X177264Y77193D01*
X177715Y75706D01*
X178447Y74336D01*
X179434Y73134D01*
X180635Y72148D01*
X182006Y71416D01*
X182770Y71184D01*
X182728Y70674D01*
X182039Y70583D01*
X181077Y70185D01*
X180252Y69551D01*
X179618Y68726D01*
X179220Y67764D01*
X179150Y67232D01*
X186024D01*
X192897D01*
X192827Y67764D01*
X192429Y68726D01*
X191796Y69551D01*
X190970Y70185D01*
X190008Y70583D01*
X188976Y70719D01*
X187499D01*
X187425Y71219D01*
X188073Y71416D01*
X189444Y72148D01*
X190645Y73134D01*
X191631Y74336D01*
X192364Y75706D01*
X192815Y77193D01*
X192918Y78240D01*
D02*
G37*
G36*
X77272Y65900D02*
Y64476D01*
X78695D01*
X78641Y64751D01*
X78202Y65407D01*
X77546Y65846D01*
X77272Y65900D01*
D02*
G37*
G36*
X76272D02*
X75997Y65846D01*
X75341Y65407D01*
X74902Y64751D01*
X74848Y64476D01*
X76272D01*
Y65900D01*
D02*
G37*
G36*
X192897Y66232D02*
X186524D01*
Y62745D01*
X188976D01*
X190008Y62881D01*
X190970Y63279D01*
X191796Y63913D01*
X192429Y64739D01*
X192827Y65700D01*
X192897Y66232D01*
D02*
G37*
G36*
X185524D02*
X179150D01*
X179220Y65700D01*
X179618Y64739D01*
X180252Y63913D01*
X181077Y63279D01*
X182039Y62881D01*
X183071Y62745D01*
X185524D01*
Y66232D01*
D02*
G37*
G36*
X78695Y63476D02*
X77272D01*
Y62053D01*
X77546Y62107D01*
X78202Y62546D01*
X78641Y63202D01*
X78695Y63476D01*
D02*
G37*
G36*
X76272D02*
X74848D01*
X74902Y63202D01*
X75341Y62546D01*
X75997Y62107D01*
X76272Y62053D01*
Y63476D01*
D02*
G37*
G36*
X26530Y60523D02*
X25106D01*
Y59100D01*
X25381Y59154D01*
X26037Y59593D01*
X26475Y60249D01*
X26530Y60523D01*
D02*
G37*
G36*
X24106D02*
X22683D01*
X22737Y60249D01*
X23176Y59593D01*
X23832Y59154D01*
X24106Y59100D01*
Y60523D01*
D02*
G37*
G36*
X182087Y61846D02*
X181395Y61708D01*
X180809Y61317D01*
X180762Y61246D01*
X177650D01*
X177523Y61221D01*
X171063D01*
Y54921D01*
X180512D01*
Y58621D01*
X181021D01*
X181395Y58371D01*
X182087Y58233D01*
X182778Y58371D01*
X183364Y58762D01*
X183756Y59348D01*
X183893Y60039D01*
X183756Y60731D01*
X183364Y61317D01*
X182778Y61708D01*
X182087Y61846D01*
D02*
G37*
G36*
X131890Y67751D02*
X131199Y67614D01*
X130613Y67222D01*
X130221Y66636D01*
X130083Y65945D01*
X130221Y65254D01*
X130577Y64720D01*
Y62008D01*
X130677Y61506D01*
X130962Y61080D01*
X133555Y58486D01*
X133981Y58201D01*
X134484Y58102D01*
X154913D01*
X155446Y57745D01*
X156137Y57608D01*
X156828Y57745D01*
X157414Y58137D01*
X157806Y58723D01*
X157943Y59414D01*
X157806Y60105D01*
X157414Y60691D01*
X156828Y61083D01*
X156137Y61221D01*
X155446Y61083D01*
X154913Y60727D01*
X135027D01*
X133202Y62552D01*
Y64720D01*
X133559Y65254D01*
X133696Y65945D01*
X133559Y66636D01*
X133167Y67222D01*
X132581Y67614D01*
X131890Y67751D01*
D02*
G37*
G36*
X63492Y57721D02*
Y56297D01*
X64916D01*
X64861Y56571D01*
X64423Y57227D01*
X63766Y57666D01*
X63492Y57721D01*
D02*
G37*
G36*
X62492D02*
X62218Y57666D01*
X61562Y57227D01*
X61123Y56571D01*
X61068Y56297D01*
X62492D01*
Y57721D01*
D02*
G37*
G36*
X64916Y55297D02*
X63492D01*
Y53873D01*
X63766Y53928D01*
X64423Y54366D01*
X64861Y55023D01*
X64916Y55297D01*
D02*
G37*
G36*
X62492D02*
X61068D01*
X61123Y55023D01*
X61562Y54366D01*
X62218Y53928D01*
X62492Y53873D01*
Y55297D01*
D02*
G37*
G36*
X186024Y56128D02*
X185253Y56026D01*
X184535Y55729D01*
X183918Y55256D01*
X183444Y54639D01*
X183147Y53920D01*
X183045Y53150D01*
X183147Y52379D01*
X183444Y51661D01*
X183918Y51044D01*
X184535Y50570D01*
X185253Y50273D01*
X186024Y50171D01*
X186794Y50273D01*
X187513Y50570D01*
X188129Y51044D01*
X188603Y51661D01*
X188900Y52379D01*
X189002Y53150D01*
X188900Y53920D01*
X188603Y54639D01*
X188129Y55256D01*
X187513Y55729D01*
X186794Y56026D01*
X186024Y56128D01*
D02*
G37*
G36*
X77272Y49168D02*
Y47744D01*
X78695D01*
X78641Y48018D01*
X78202Y48675D01*
X77546Y49113D01*
X77272Y49168D01*
D02*
G37*
G36*
X76272D02*
X75997Y49113D01*
X75341Y48675D01*
X74902Y48018D01*
X74848Y47744D01*
X76272D01*
Y49168D01*
D02*
G37*
G36*
X78695Y46744D02*
X77272D01*
Y45320D01*
X77546Y45375D01*
X78202Y45814D01*
X78641Y46470D01*
X78695Y46744D01*
D02*
G37*
G36*
X76272D02*
X74848D01*
X74902Y46470D01*
X75341Y45814D01*
X75997Y45375D01*
X76272Y45320D01*
Y46744D01*
D02*
G37*
G36*
X43807Y41331D02*
Y36917D01*
X48221D01*
X48117Y37706D01*
X47620Y38907D01*
X46828Y39938D01*
X45797Y40730D01*
X44596Y41227D01*
X43807Y41331D01*
D02*
G37*
G36*
X42807D02*
X42018Y41227D01*
X40817Y40730D01*
X39786Y39938D01*
X38995Y38907D01*
X38497Y37706D01*
X38393Y36917D01*
X42807D01*
Y41331D01*
D02*
G37*
G36*
X134843Y56924D02*
X134151Y56787D01*
X133565Y56395D01*
X133174Y55809D01*
X133036Y55118D01*
X133174Y54427D01*
X133565Y53841D01*
X134151Y53449D01*
X134376Y53404D01*
Y52895D01*
X134151Y52850D01*
X133565Y52458D01*
X133174Y51872D01*
X133036Y51181D01*
X133174Y50490D01*
X133565Y49904D01*
X134151Y49512D01*
X134780Y49387D01*
X149662Y34505D01*
X150088Y34220D01*
X150591Y34120D01*
X170452D01*
X170850Y33874D01*
X170850Y33620D01*
Y31012D01*
X175787D01*
X180724D01*
Y33620D01*
X180724Y33855D01*
X180992Y34043D01*
X181121Y34124D01*
X181605Y34220D01*
X182030Y34505D01*
X182590Y35064D01*
X183118Y34885D01*
X183147Y34662D01*
X183444Y33944D01*
X183918Y33327D01*
X184535Y32854D01*
X185253Y32556D01*
X186024Y32455D01*
X186794Y32556D01*
X187513Y32854D01*
X188129Y33327D01*
X188603Y33944D01*
X188900Y34662D01*
X189002Y35433D01*
X188900Y36204D01*
X188603Y36922D01*
X188129Y37539D01*
X187513Y38012D01*
X186794Y38310D01*
X186024Y38411D01*
X185253Y38310D01*
X184535Y38012D01*
X183918Y37539D01*
X183899Y37515D01*
X183399Y37685D01*
Y43504D01*
X183299Y44006D01*
X183015Y44432D01*
X180512Y46935D01*
Y51378D01*
X171063D01*
Y45079D01*
X178656D01*
X179768Y43966D01*
X179577Y43504D01*
X171063D01*
Y41667D01*
X150150D01*
X136636Y55181D01*
X136511Y55809D01*
X136120Y56395D01*
X135534Y56787D01*
X134843Y56924D01*
D02*
G37*
G36*
X42807Y35917D02*
X38393D01*
X38497Y35129D01*
X38995Y33928D01*
X39786Y32896D01*
X40817Y32105D01*
X42018Y31607D01*
X42807Y31503D01*
Y35917D01*
D02*
G37*
G36*
X94988Y30467D02*
Y29043D01*
X96412D01*
X96357Y29318D01*
X95919Y29974D01*
X95262Y30412D01*
X94988Y30467D01*
D02*
G37*
G36*
X93988D02*
X93714Y30412D01*
X93058Y29974D01*
X92619Y29318D01*
X92564Y29043D01*
X93988D01*
Y30467D01*
D02*
G37*
G36*
X114764Y37205D02*
X108858D01*
Y28543D01*
X114764D01*
Y37205D01*
D02*
G37*
G36*
X69882Y36811D02*
X63976D01*
Y28150D01*
X68026D01*
X74677Y21498D01*
X74470Y20998D01*
X56343D01*
X55809Y21354D01*
X55118Y21491D01*
X54427Y21354D01*
X53841Y20962D01*
X53449Y20376D01*
X53312Y19685D01*
X53449Y18994D01*
X53678Y18651D01*
X53411Y18151D01*
X52616D01*
X52114Y18051D01*
X52105Y18045D01*
X48772D01*
X46588Y20229D01*
Y28984D01*
X47306Y29702D01*
X47935Y29827D01*
X48521Y30219D01*
X48913Y30805D01*
X49409Y30738D01*
Y28150D01*
X55315D01*
Y36811D01*
X49409D01*
Y32254D01*
X48913Y32187D01*
X48521Y32773D01*
X47935Y33165D01*
X47701Y33212D01*
X47493Y33763D01*
X47620Y33928D01*
X48117Y35129D01*
X48221Y35917D01*
X43807D01*
Y31503D01*
X44596Y31607D01*
X44931Y31746D01*
X45214Y31322D01*
X44347Y30456D01*
X44063Y30030D01*
X43963Y29528D01*
Y19685D01*
X44063Y19183D01*
X44347Y18757D01*
X46372Y16732D01*
X42261Y12621D01*
X41632Y12496D01*
X41098Y12139D01*
X29632D01*
X29383Y12389D01*
X28957Y12673D01*
X28455Y12773D01*
X21822D01*
X21576Y13273D01*
X22009Y13838D01*
X22391Y14759D01*
X22521Y15748D01*
X22391Y16737D01*
X22009Y17658D01*
X21402Y18449D01*
X20611Y19056D01*
X19690Y19438D01*
X18701Y19568D01*
X17712Y19438D01*
X16791Y19056D01*
X16000Y18449D01*
X15393Y17658D01*
X15011Y16737D01*
X14881Y15748D01*
X15011Y14759D01*
X15393Y13838D01*
X15826Y13273D01*
X15579Y12773D01*
X14674D01*
X13285Y14162D01*
X13532Y14759D01*
X13663Y15748D01*
X13532Y16737D01*
X13151Y17658D01*
X12544Y18449D01*
X11752Y19056D01*
X10831Y19438D01*
X9843Y19568D01*
X8854Y19438D01*
X7932Y19056D01*
X7141Y18449D01*
X6534Y17658D01*
X6153Y16737D01*
X6022Y15748D01*
X6153Y14759D01*
X6534Y13838D01*
X7141Y13047D01*
X7932Y12440D01*
X8854Y12058D01*
X9843Y11928D01*
X10831Y12058D01*
X11429Y12306D01*
X13202Y10532D01*
X13628Y10248D01*
X14130Y10148D01*
X15626D01*
X15775Y9648D01*
X15207Y8907D01*
X14804Y7934D01*
X14732Y7390D01*
X22670D01*
X22598Y7934D01*
X22195Y8907D01*
X21626Y9648D01*
X21775Y10148D01*
X27911D01*
X28161Y9899D01*
X28587Y9614D01*
X29089Y9514D01*
X41098D01*
X41632Y9158D01*
X42261Y9033D01*
X44151Y7143D01*
X44576Y6858D01*
X45079Y6758D01*
X49409D01*
Y3740D01*
X55315D01*
Y12402D01*
X49409D01*
Y9384D01*
X45622D01*
X44179Y10827D01*
X48772Y15420D01*
X52510D01*
X53012Y15520D01*
X53022Y15526D01*
X55963D01*
X56465Y15626D01*
X56891Y15910D01*
X56900Y15920D01*
X67067D01*
X67182Y15804D01*
X67608Y15520D01*
X68110Y15420D01*
X69300D01*
X69497Y14920D01*
X69197Y14471D01*
X69060Y13780D01*
X69197Y13088D01*
X69322Y12902D01*
X69055Y12402D01*
X63976D01*
Y3740D01*
X69882D01*
Y11751D01*
X70382Y12070D01*
X70866Y11973D01*
X71557Y12111D01*
X71996Y12404D01*
X72294Y12337D01*
X72413Y11798D01*
X72102Y11559D01*
X71495Y10768D01*
X71113Y9847D01*
X70983Y8858D01*
X71113Y7870D01*
X71495Y6948D01*
X72102Y6157D01*
X72893Y5550D01*
X73814Y5168D01*
X74803Y5038D01*
X75792Y5168D01*
X76713Y5550D01*
X77504Y6157D01*
X78111Y6948D01*
X78493Y7869D01*
X78987D01*
X79369Y6948D01*
X79976Y6157D01*
X80767Y5550D01*
X81688Y5168D01*
X82677Y5038D01*
X83666Y5168D01*
X84587Y5550D01*
X85378Y6157D01*
X85985Y6948D01*
X86367Y7869D01*
X86861D01*
X87243Y6948D01*
X87850Y6157D01*
X88641Y5550D01*
X89562Y5168D01*
X90551Y5038D01*
X91540Y5168D01*
X92461Y5550D01*
X93252Y6157D01*
X93859Y6948D01*
X94241Y7869D01*
X94735D01*
X95117Y6948D01*
X95724Y6157D01*
X96515Y5550D01*
X97436Y5168D01*
X98425Y5038D01*
X99414Y5168D01*
X100335Y5550D01*
X101126Y6157D01*
X101734Y6948D01*
X102115Y7870D01*
X102245Y8858D01*
X102115Y9847D01*
X101734Y10768D01*
X101126Y11559D01*
X100335Y12167D01*
X99414Y12548D01*
X98425Y12678D01*
X97436Y12548D01*
X96839Y12301D01*
X95508Y13632D01*
X95715Y14132D01*
X100153D01*
X102537Y11749D01*
X102662Y11120D01*
X103053Y10534D01*
X103639Y10142D01*
X104331Y10005D01*
X105022Y10142D01*
X105608Y10534D01*
X106000Y11120D01*
X106137Y11811D01*
X106000Y12502D01*
X105608Y13088D01*
X105022Y13480D01*
X104393Y13605D01*
X102094Y15904D01*
X102301Y16404D01*
X118110D01*
X118613Y16504D01*
X119038Y16788D01*
X119638Y17388D01*
X129377D01*
X130096Y16670D01*
X130221Y16041D01*
X130613Y15455D01*
X131199Y15063D01*
X131890Y14926D01*
X132581Y15063D01*
X133167Y15455D01*
X133559Y16041D01*
X133696Y16732D01*
X133559Y17424D01*
X133167Y18010D01*
X132581Y18401D01*
X131952Y18526D01*
X130849Y19629D01*
X130424Y19914D01*
X129921Y20013D01*
X119095D01*
X118592Y19914D01*
X118166Y19629D01*
X117567Y19029D01*
X85958D01*
Y29968D01*
X88645Y32655D01*
X89274Y32780D01*
X89860Y33171D01*
X90251Y33757D01*
X90389Y34449D01*
X90251Y35140D01*
X89860Y35726D01*
X89274Y36118D01*
X88582Y36255D01*
X87891Y36118D01*
X87305Y35726D01*
X86914Y35140D01*
X86788Y34511D01*
X83718Y31440D01*
X83433Y31014D01*
X83333Y30512D01*
Y18941D01*
X82977Y18408D01*
X82846Y17749D01*
X82716Y17665D01*
X82369Y17519D01*
X69882Y30006D01*
Y36811D01*
D02*
G37*
G36*
X180724Y30012D02*
X176287D01*
Y27150D01*
X180724D01*
Y30012D01*
D02*
G37*
G36*
X175287D02*
X170850D01*
Y27150D01*
X175287D01*
Y30012D01*
D02*
G37*
G36*
X96412Y28043D02*
X94988D01*
Y26620D01*
X95262Y26674D01*
X95919Y27113D01*
X96357Y27769D01*
X96412Y28043D01*
D02*
G37*
G36*
X93988D02*
X92564D01*
X92619Y27769D01*
X93058Y27113D01*
X93714Y26674D01*
X93988Y26620D01*
Y28043D01*
D02*
G37*
G36*
X129331Y37205D02*
X123425D01*
Y28543D01*
X127917D01*
X128043Y28518D01*
X132027D01*
X134033Y26512D01*
X134158Y25883D01*
X134549Y25297D01*
X135135Y24906D01*
X135827Y24768D01*
X136518Y24906D01*
X137104Y25297D01*
X137496Y25883D01*
X137633Y26575D01*
X137496Y27266D01*
X137104Y27852D01*
X136518Y28244D01*
X135889Y28369D01*
X133499Y30759D01*
X133073Y31043D01*
X132571Y31143D01*
X129331D01*
Y37205D01*
D02*
G37*
G36*
X188976Y25837D02*
X186524D01*
Y22350D01*
X192897D01*
X192827Y22882D01*
X192429Y23844D01*
X191796Y24669D01*
X190970Y25303D01*
X190008Y25701D01*
X188976Y25837D01*
D02*
G37*
G36*
X185524D02*
X183071D01*
X182039Y25701D01*
X181077Y25303D01*
X180252Y24669D01*
X179618Y23844D01*
X179220Y22882D01*
X179150Y22350D01*
X185524D01*
Y25837D01*
D02*
G37*
G36*
X30028Y23577D02*
Y22153D01*
X31451D01*
X31397Y22428D01*
X30958Y23084D01*
X30302Y23523D01*
X30028Y23577D01*
D02*
G37*
G36*
X29028D02*
X28753Y23523D01*
X28097Y23084D01*
X27658Y22428D01*
X27604Y22153D01*
X29028D01*
Y23577D01*
D02*
G37*
G36*
X18701Y28426D02*
X17712Y28296D01*
X16791Y27915D01*
X16000Y27308D01*
X15393Y26516D01*
X15011Y25595D01*
X14881Y24606D01*
X15011Y23618D01*
X15393Y22696D01*
X16000Y21905D01*
X16791Y21298D01*
X17712Y20916D01*
X18701Y20786D01*
X19690Y20916D01*
X20611Y21298D01*
X21402Y21905D01*
X22009Y22696D01*
X22391Y23618D01*
X22521Y24606D01*
X22391Y25595D01*
X22009Y26516D01*
X21402Y27308D01*
X20611Y27915D01*
X19690Y28296D01*
X18701Y28426D01*
D02*
G37*
G36*
X9843D02*
X8854Y28296D01*
X7932Y27915D01*
X7141Y27308D01*
X6534Y26516D01*
X6153Y25595D01*
X6022Y24606D01*
X6153Y23618D01*
X6534Y22696D01*
X7141Y21905D01*
X7932Y21298D01*
X8854Y20916D01*
X9843Y20786D01*
X10831Y20916D01*
X11752Y21298D01*
X12544Y21905D01*
X13151Y22696D01*
X13532Y23618D01*
X13663Y24606D01*
X13532Y25595D01*
X13151Y26516D01*
X12544Y27308D01*
X11752Y27915D01*
X10831Y28296D01*
X9843Y28426D01*
D02*
G37*
G36*
X31451Y21154D02*
X30028D01*
Y19730D01*
X30302Y19784D01*
X30958Y20223D01*
X31397Y20879D01*
X31451Y21154D01*
D02*
G37*
G36*
X29028D02*
X27604D01*
X27658Y20879D01*
X28097Y20223D01*
X28753Y19784D01*
X29028Y19730D01*
Y21154D01*
D02*
G37*
G36*
X192897Y21350D02*
X186524D01*
Y17864D01*
X188976D01*
X190008Y17999D01*
X190970Y18398D01*
X191796Y19031D01*
X192429Y19857D01*
X192827Y20819D01*
X192897Y21350D01*
D02*
G37*
G36*
X185524D02*
X179150D01*
X179220Y20819D01*
X179618Y19857D01*
X180252Y19031D01*
X181077Y18398D01*
X182039Y17999D01*
X183071Y17864D01*
X185524D01*
Y21350D01*
D02*
G37*
G36*
X125500Y16687D02*
Y15264D01*
X126924D01*
X126869Y15538D01*
X126431Y16194D01*
X125774Y16633D01*
X125500Y16687D01*
D02*
G37*
G36*
X124500D02*
X124226Y16633D01*
X123569Y16194D01*
X123131Y15538D01*
X123076Y15264D01*
X124500D01*
Y16687D01*
D02*
G37*
G36*
X166839Y17721D02*
Y10343D01*
X174217D01*
X174114Y11389D01*
X173663Y12876D01*
X172930Y14247D01*
X171944Y15448D01*
X170743Y16434D01*
X169372Y17167D01*
X167885Y17618D01*
X166839Y17721D01*
D02*
G37*
G36*
X165839D02*
X164792Y17618D01*
X163305Y17167D01*
X161934Y16434D01*
X160733Y15448D01*
X159747Y14247D01*
X159014Y12876D01*
X158563Y11389D01*
X158460Y10343D01*
X165839D01*
Y17721D01*
D02*
G37*
G36*
X9843Y10710D02*
X8854Y10580D01*
X7932Y10198D01*
X7141Y9591D01*
X6534Y8800D01*
X6153Y7879D01*
X6022Y6890D01*
X6153Y5901D01*
X6534Y4980D01*
X7141Y4189D01*
X7932Y3582D01*
X8854Y3200D01*
X9843Y3070D01*
X10831Y3200D01*
X11752Y3582D01*
X12544Y4189D01*
X13151Y4980D01*
X13532Y5901D01*
X13663Y6890D01*
X13532Y7879D01*
X13151Y8800D01*
X12544Y9591D01*
X11752Y10198D01*
X10831Y10580D01*
X9843Y10710D01*
D02*
G37*
G36*
X22670Y6390D02*
X19201D01*
Y2921D01*
X19745Y2993D01*
X20718Y3396D01*
X21554Y4037D01*
X22195Y4873D01*
X22598Y5846D01*
X22670Y6390D01*
D02*
G37*
G36*
X18201D02*
X14732D01*
X14804Y5846D01*
X15207Y4873D01*
X15848Y4037D01*
X16683Y3396D01*
X17657Y2993D01*
X18201Y2921D01*
Y6390D01*
D02*
G37*
%LPD*%
G36*
X149606Y39042D02*
X171063D01*
Y37205D01*
X171063D01*
X170964Y36746D01*
X151134D01*
X149284Y38596D01*
X149530Y39057D01*
X149606Y39042D01*
D02*
G37*
D10*
X70866Y13780D02*
X77756D01*
X144685Y8555D02*
Y8858D01*
X139764Y3634D02*
X144685Y8555D01*
X115264Y3634D02*
X139764D01*
X111811Y7087D02*
X115264Y3634D01*
X111811Y7087D02*
Y8465D01*
X125000Y14764D02*
X129921D01*
X132571Y29831D02*
X135827Y26575D01*
X128043Y29831D02*
X132571D01*
X126378Y31496D02*
X128043Y29831D01*
X126378Y31496D02*
Y32874D01*
X74803Y19685D02*
X81343Y13146D01*
X100697Y15445D02*
X104331Y11811D01*
X82587Y15445D02*
X100697D01*
X66929Y31102D02*
X82587Y15445D01*
X66929Y31102D02*
Y32480D01*
X81343Y13146D02*
X94138D01*
X98425Y8858D01*
X45276Y19685D02*
Y29528D01*
X47244Y31496D01*
X42323Y10827D02*
X45079Y8071D01*
X52362D01*
X55118Y19685D02*
X74803D01*
X45276Y19685D02*
X48228Y16732D01*
X94488Y28543D02*
X98425Y24606D01*
X130905D01*
X140748Y14764D01*
X159395D01*
X164316Y9843D01*
X166339D01*
X136811Y10827D02*
X140748Y14764D01*
X133858Y10827D02*
X136811D01*
X129921Y14764D02*
X133858Y10827D01*
X119095Y18701D02*
X129921D01*
X118110Y17717D02*
X119095Y18701D01*
X84646Y17717D02*
X118110D01*
X129921Y18701D02*
X131890Y16732D01*
X76772Y47244D02*
X84646D01*
X94488Y37402D01*
Y28543D02*
Y37402D01*
X166339Y9843D02*
X175787Y19291D01*
Y30512D01*
X165354Y75787D02*
X171260Y81693D01*
X157480Y75787D02*
X165354D01*
X151575Y81693D02*
X157480Y75787D01*
X134484Y59414D02*
X156137D01*
X131890Y62008D02*
X134484Y59414D01*
X131890Y62008D02*
Y65945D01*
X95472Y63976D02*
X112205Y80709D01*
X76772Y63976D02*
X95472D01*
X76772Y47244D02*
Y63976D01*
X39463Y31589D02*
Y32573D01*
X29528Y21654D02*
X39463Y31589D01*
Y32573D02*
X43307Y36417D01*
X25591Y77756D02*
X50197D01*
X12225Y64391D02*
X25591Y77756D01*
X12225Y58485D02*
Y64391D01*
X62839Y55797D02*
X62992D01*
X43460Y36417D02*
X62839Y55797D01*
X43307Y36417D02*
X43460D01*
X30512D02*
X43307D01*
X12225Y54704D02*
X30512Y36417D01*
X12225Y54704D02*
Y58485D01*
X13164Y59424D01*
X22745D01*
X24344Y61023D01*
X24606D01*
X44029Y62008D02*
X44291D01*
X42742Y63295D02*
X44029Y62008D01*
X20930Y63295D02*
X42742D01*
X19643Y62008D02*
X20930Y63295D01*
X14764Y62008D02*
X19643D01*
X14764Y57087D02*
X18020Y53831D01*
X84646Y30512D02*
X88582Y34449D01*
X84646Y17717D02*
Y30512D01*
X48909Y53831D02*
X75787Y80709D01*
X18020Y53831D02*
X48909D01*
X45090Y57272D02*
X46260Y56102D01*
X45090Y57272D02*
Y58725D01*
X44291Y59524D02*
X45090Y58725D01*
X44291Y59524D02*
Y62008D01*
X14130Y11461D02*
X28455D01*
X9843Y15748D02*
X14130Y11461D01*
X28455D02*
X29089Y10827D01*
X42323D01*
X48228Y16732D01*
X52510D01*
X52616Y16839D01*
X55963D01*
X56357Y17232D01*
X67610D01*
X68110Y16732D01*
X72835D01*
X40354Y69882D02*
X57087D01*
X67913Y80709D01*
X77756Y13780D02*
X82677Y8858D01*
X134843Y51181D02*
X150591Y35433D01*
X181102D01*
X182087Y36417D01*
Y43504D01*
X177362Y48228D02*
X182087Y43504D01*
X175787Y48228D02*
X177362D01*
X134843Y55118D02*
X149606Y40354D01*
X175787D01*
X181980Y59933D02*
X182087Y60039D01*
X177650Y59933D02*
X181980D01*
X175787Y58071D02*
X177650Y59933D01*
D46*
X18701Y6890D02*
D03*
X144685Y8858D02*
D03*
X90551Y8858D02*
D03*
X141732Y81693D02*
D03*
X98425Y8858D02*
D03*
X67913Y80709D02*
D03*
X75787Y80709D02*
D03*
X74803Y8858D02*
D03*
X82677D02*
D03*
X132874Y81693D02*
D03*
X152559Y8858D02*
D03*
X171260Y81693D02*
D03*
X162402D02*
D03*
X60039Y80709D02*
D03*
X18701Y15748D02*
D03*
Y24606D02*
D03*
X9843Y6890D02*
D03*
Y15748D02*
D03*
Y24606D02*
D03*
D47*
X112205Y80709D02*
D03*
X151575Y81693D02*
D03*
X43307Y36417D02*
D03*
D48*
X185039Y78740D02*
D03*
X166339Y9843D02*
D03*
D49*
X186024Y21850D02*
D03*
Y66732D02*
D03*
D50*
Y35433D02*
D03*
Y53150D02*
D03*
X70866Y13780D02*
D03*
X125000Y14764D02*
D03*
X135827Y26575D02*
D03*
X84646Y17717D02*
D03*
X29528Y21654D02*
D03*
X42323Y10827D02*
D03*
X55118Y19685D02*
D03*
X72835Y16732D02*
D03*
X47244Y31496D02*
D03*
X94488Y28543D02*
D03*
X76772Y63976D02*
D03*
Y47244D02*
D03*
X50197Y77756D02*
D03*
X62992Y55797D02*
D03*
X24606Y61023D02*
D03*
X14764Y57087D02*
D03*
Y62008D02*
D03*
X88582Y34449D02*
D03*
X134843Y55118D02*
D03*
Y51181D02*
D03*
X131890Y65945D02*
D03*
X156137Y59414D02*
D03*
X46260Y56102D02*
D03*
X44291Y62008D02*
D03*
X131890Y16732D02*
D03*
X40354Y69882D02*
D03*
X104331Y11811D02*
D03*
X182087Y60039D02*
D03*
D51*
X126378Y8465D02*
D03*
Y32874D02*
D03*
X111811Y8465D02*
D03*
Y32874D02*
D03*
X52362Y32480D02*
D03*
Y8071D02*
D03*
X66929Y32480D02*
D03*
Y8071D02*
D03*
D52*
X175787Y30512D02*
D03*
Y40354D02*
D03*
Y48228D02*
D03*
Y58071D02*
D03*
M02*
