G04*
G04 #@! TF.GenerationSoftware,Altium Limited,Altium Designer,19.1.5 (86)*
G04*
G04 Layer_Color=16711935*
%FSLAX25Y25*%
%MOIN*%
G70*
G01*
G75*
%ADD41C,0.06800*%
%ADD42C,0.08674*%
%ADD43C,0.14580*%
%ADD44O,0.12611X0.06706*%
%ADD45C,0.02769*%
%ADD53R,0.05131X0.07887*%
%ADD54R,0.08674X0.05524*%
D41*
X18701Y6890D02*
D03*
X144685Y8858D02*
D03*
X90551Y8858D02*
D03*
X141732Y81693D02*
D03*
X98425Y8858D02*
D03*
X67913Y80709D02*
D03*
X75787Y80709D02*
D03*
X74803Y8858D02*
D03*
X82677D02*
D03*
X132874Y81693D02*
D03*
X152559Y8858D02*
D03*
X171260Y81693D02*
D03*
X162402D02*
D03*
X60039Y80709D02*
D03*
X18701Y15748D02*
D03*
Y24606D02*
D03*
X9843Y6890D02*
D03*
Y15748D02*
D03*
Y24606D02*
D03*
D42*
X112205Y80709D02*
D03*
X151575Y81693D02*
D03*
X43307Y36417D02*
D03*
D43*
X185039Y78740D02*
D03*
X166339Y9843D02*
D03*
D44*
X186024Y21850D02*
D03*
Y66732D02*
D03*
D45*
Y35433D02*
D03*
Y53150D02*
D03*
X70866Y13780D02*
D03*
X125000Y14764D02*
D03*
X135827Y26575D02*
D03*
X84646Y17717D02*
D03*
X29528Y21654D02*
D03*
X42323Y10827D02*
D03*
X55118Y19685D02*
D03*
X72835Y16732D02*
D03*
X47244Y31496D02*
D03*
X94488Y28543D02*
D03*
X76772Y63976D02*
D03*
Y47244D02*
D03*
X50197Y77756D02*
D03*
X62992Y55797D02*
D03*
X24606Y61023D02*
D03*
X14764Y57087D02*
D03*
Y62008D02*
D03*
X88582Y34449D02*
D03*
X134843Y55118D02*
D03*
Y51181D02*
D03*
X131890Y65945D02*
D03*
X156137Y59414D02*
D03*
X46260Y56102D02*
D03*
X44291Y62008D02*
D03*
X131890Y16732D02*
D03*
X40354Y69882D02*
D03*
X104331Y11811D02*
D03*
X182087Y60039D02*
D03*
D53*
X126378Y8465D02*
D03*
Y32874D02*
D03*
X111811Y8465D02*
D03*
Y32874D02*
D03*
X52362Y32480D02*
D03*
Y8071D02*
D03*
X66929Y32480D02*
D03*
Y8071D02*
D03*
D54*
X175787Y30512D02*
D03*
Y40354D02*
D03*
Y48228D02*
D03*
Y58071D02*
D03*
M02*
