M48
;Layer_Color=9474304
;FILE_FORMAT=2:5
INCH,LZ
;TYPE=PLATED
T1F00S00C0.01181
T2F00S00C0.03000
T4F00S00C0.05906
T5F00S00C0.11811
;TYPE=NON_PLATED
T6F00S00C0.04331
%
T01
X0029528Y0021654
X0042323Y0010827
X0055118Y0019685
X0047244Y0031496
X004626Y0056102
X0014764Y0057087
X0062992Y0055797
X0076772Y0047244
X0088582Y0034449
X0094488Y0028543
X0084646Y0017717
X0072835Y0016732
X0070866Y001378
X0104331Y0011811
X0125Y0014764
X013189Y0016732
X0135827Y0026575
X0134843Y0051181
Y0055118
X013189Y0065945
X0156137Y0059414
X0182087Y0060039
X0076772Y0063976
X0044291Y0062008
X0040354Y0069882
X0050197Y0077756
X0024606Y0061023
X0014764Y0062008
T02
X0009843Y000689
X0018701
Y0015748
Y0024606
X0009843
Y0015748
X0074803Y0008858
X0082677
X0090551
X0098425
X0144685Y0008858
X0152559
X0162402Y0081693
X017126
X0141732Y0081693
X0132874
X0075787Y0080709
X0067913Y0080709
X0060039Y0080709
T04
X0043307Y0036417
X0112205Y0080709
X0151575Y0081693
T05
X0166339Y0009843
X0185039Y007874
T06
X0186024Y0035433
Y005315
M30
