G04*
G04 #@! TF.GenerationSoftware,Altium Limited,Altium Designer,19.1.5 (86)*
G04*
G04 Layer_Color=65535*
%FSLAX25Y25*%
%MOIN*%
G70*
G01*
G75*
%ADD10C,0.01000*%
%ADD11C,0.00984*%
%ADD12C,0.00600*%
%ADD13C,0.02362*%
%ADD14C,0.01575*%
%ADD15C,0.00787*%
%ADD16C,0.00315*%
%ADD17C,0.00394*%
G36*
X98024Y20272D02*
X96524D01*
Y19272D01*
X98024D01*
Y20272D01*
D02*
G37*
G36*
X80144Y44057D02*
X79144D01*
Y42557D01*
X80144D01*
Y44057D01*
D02*
G37*
G36*
X99992Y72248D02*
X98492D01*
Y73248D01*
X99992D01*
Y72248D01*
D02*
G37*
G36*
X117709Y20272D02*
X116209D01*
Y19272D01*
X117709D01*
Y20272D01*
D02*
G37*
G36*
X132120Y46026D02*
X133120D01*
Y44526D01*
X132120D01*
Y46026D01*
D02*
G37*
G36*
X119677Y72248D02*
X118177D01*
Y73248D01*
X119677D01*
Y72248D01*
D02*
G37*
D10*
X90551Y62992D02*
G03*
X90551Y62992I-984J0D01*
G01*
D11*
X184646Y56693D02*
G03*
X184646Y56693I-492J0D01*
G01*
X35925Y28189D02*
G03*
X35925Y28189I-492J0D01*
G01*
D12*
X79460Y61024D02*
G03*
X79460Y61024I-300J0D01*
G01*
X26575Y67152D02*
X41535D01*
Y60853D02*
Y67152D01*
X26575Y60853D02*
X41535D01*
X26575D02*
Y67152D01*
X122861Y6693D02*
X137821D01*
X122861D02*
Y12992D01*
X137821D01*
Y6693D02*
Y12992D01*
X106299D02*
X121260D01*
Y6693D02*
Y12992D01*
X106299Y6693D02*
X121260D01*
X106299D02*
Y12992D01*
X85932Y26060D02*
X89461D01*
X126332D02*
Y29589D01*
X122803Y66460D02*
X126332D01*
X85932Y62931D02*
Y66460D01*
Y26060D02*
Y29589D01*
X122803Y26060D02*
X126332D01*
Y62931D02*
Y66460D01*
X85932D02*
X89461D01*
X26575Y59252D02*
X41535D01*
Y52953D02*
Y59252D01*
X26575Y52953D02*
X41535D01*
X26575D02*
Y59252D01*
D13*
X45472Y24035D02*
G03*
X45472Y24035I-1181J0D01*
G01*
D14*
X76772Y39264D02*
G03*
X76772Y39264I-626J0D01*
G01*
D15*
X136102Y62825D02*
X141417D01*
X136102D02*
Y73298D01*
X141417D01*
Y62825D02*
Y73298D01*
X145945Y62825D02*
X151260D01*
X145945D02*
Y73298D01*
X151260D01*
Y62825D02*
Y73298D01*
X153746Y62047D02*
Y74921D01*
X160793D01*
Y62047D02*
Y74921D01*
X153746Y62047D02*
X160793D01*
X162582Y62835D02*
Y73307D01*
Y62835D02*
X167897D01*
Y73307D01*
X162582D02*
X167897D01*
X140787Y59606D02*
X153661D01*
Y52559D02*
Y59606D01*
X140787Y52559D02*
X153661D01*
X140787D02*
Y59606D01*
X140630Y43723D02*
X153504D01*
X140630D02*
Y50771D01*
X153504D01*
Y43723D02*
Y50771D01*
X140630Y34888D02*
X153504D01*
X140630D02*
Y41935D01*
X153504D01*
Y34888D02*
Y41935D01*
X140630Y26052D02*
X153504D01*
X140630D02*
Y33099D01*
X153504D01*
Y26052D02*
Y33099D01*
X140787Y17217D02*
X153661D01*
X140787D02*
Y24264D01*
X153661D01*
Y17217D02*
Y24264D01*
X155450Y27140D02*
X168324D01*
Y20093D02*
Y27140D01*
X155450Y20093D02*
X168324D01*
X155450D02*
Y27140D01*
X182087Y37992D02*
Y50591D01*
X156496Y37992D02*
X182087D01*
X156496D02*
Y50591D01*
X182087D01*
X65276Y47765D02*
Y58238D01*
Y47765D02*
X70591D01*
Y58238D01*
X65276D02*
X70591D01*
X56417Y47765D02*
Y58238D01*
Y47765D02*
X61732D01*
Y58238D01*
X56417D02*
X61732D01*
X40354Y6713D02*
Y27972D01*
X58465Y6713D02*
Y27972D01*
X40354D02*
X58465D01*
X40354Y6713D02*
X58465D01*
X53150Y45669D02*
X72835D01*
X53150Y33071D02*
X72835D01*
X1831Y33366D02*
X6260D01*
X1831Y86713D02*
X6260D01*
X1831Y33366D02*
Y86713D01*
X43140Y71181D02*
X53613D01*
Y76496D01*
X43140D02*
X53613D01*
X43140Y71181D02*
Y76496D01*
X43230Y69393D02*
X53703D01*
X43230Y64078D02*
Y69393D01*
Y64078D02*
X53703D01*
Y69393D01*
X49016Y43219D02*
Y53455D01*
X43504D02*
X49016D01*
X43504Y43219D02*
Y53455D01*
Y43219D02*
X49016D01*
X27096Y42422D02*
X37569D01*
X27096Y37107D02*
Y42422D01*
Y37107D02*
X37569D01*
Y42422D01*
X26860Y44211D02*
X39734D01*
X26860D02*
Y51258D01*
X39734D01*
Y44211D02*
Y51258D01*
X27392Y77087D02*
X37865D01*
Y82402D01*
X27392D02*
X37865D01*
X27392Y77087D02*
Y82402D01*
X26860Y74314D02*
X37332D01*
X26860Y68999D02*
Y74314D01*
Y68999D02*
X37332D01*
Y74314D01*
X169685Y61890D02*
Y74764D01*
X176732D01*
Y61890D02*
Y74764D01*
X169685Y61890D02*
X176732D01*
D16*
X150591Y13976D02*
Y12795D01*
X151181D01*
X151378Y12992D01*
Y13189D01*
X151181Y13386D01*
X150591D01*
X151181D01*
X151378Y13582D01*
Y13779D01*
X151181Y13976D01*
X150591D01*
X151771Y12795D02*
Y13976D01*
X152362D01*
X152558Y13779D01*
Y13386D01*
X152362Y13189D01*
X151771D01*
X153739Y12795D02*
X152952D01*
X153739Y13582D01*
Y13779D01*
X153542Y13976D01*
X153149D01*
X152952Y13779D01*
X142717Y13976D02*
Y12795D01*
X143307D01*
X143504Y12992D01*
Y13189D01*
X143307Y13386D01*
X142717D01*
X143307D01*
X143504Y13582D01*
Y13779D01*
X143307Y13976D01*
X142717D01*
X143897Y12795D02*
Y13976D01*
X144488D01*
X144684Y13779D01*
Y13386D01*
X144488Y13189D01*
X143897D01*
X145078Y12795D02*
X145472D01*
X145275D01*
Y13976D01*
X145078Y13779D01*
X140551Y77756D02*
X140354Y77952D01*
X139961D01*
X139764Y77756D01*
Y77559D01*
X139961Y77362D01*
X140354D01*
X140551Y77165D01*
Y76968D01*
X140354Y76772D01*
X139961D01*
X139764Y76968D01*
X140945Y77952D02*
Y76772D01*
X141338Y77165D01*
X141732Y76772D01*
Y77952D01*
X142125D02*
X142519D01*
X142322D01*
Y76772D01*
X142125D01*
X142519D01*
X143700Y77952D02*
X143306D01*
X143109Y77756D01*
Y76968D01*
X143306Y76772D01*
X143700D01*
X143896Y76968D01*
Y77756D01*
X143700Y77952D01*
X130708Y77756D02*
X130512Y77952D01*
X130118D01*
X129921Y77756D01*
Y77559D01*
X130118Y77362D01*
X130512D01*
X130708Y77165D01*
Y76968D01*
X130512Y76772D01*
X130118D01*
X129921Y76968D01*
X131102Y77952D02*
Y76772D01*
X131496Y77165D01*
X131889Y76772D01*
Y77952D01*
X133070Y77756D02*
X132873Y77952D01*
X132480D01*
X132283Y77756D01*
Y76968D01*
X132480Y76772D01*
X132873D01*
X133070Y76968D01*
X133463Y77952D02*
Y76772D01*
X134251D01*
X134644Y77952D02*
Y76772D01*
Y77165D01*
X135431Y77952D01*
X134841Y77362D01*
X135431Y76772D01*
X170079Y77756D02*
X169882Y77952D01*
X169488D01*
X169291Y77756D01*
Y76968D01*
X169488Y76772D01*
X169882D01*
X170079Y76968D01*
Y77362D01*
X169685D01*
X170472Y76772D02*
Y77952D01*
X171259Y76772D01*
Y77952D01*
X171653D02*
Y76772D01*
X172243D01*
X172440Y76968D01*
Y77756D01*
X172243Y77952D01*
X171653D01*
X160433Y77756D02*
X160630Y77952D01*
X161023D01*
X161220Y77756D01*
Y77559D01*
X161023Y77362D01*
X160827D01*
X161023D01*
X161220Y77165D01*
Y76968D01*
X161023Y76772D01*
X160630D01*
X160433Y76968D01*
X161614Y77559D02*
X162007Y76772D01*
X162401Y77559D01*
X162794Y77756D02*
X162991Y77952D01*
X163385D01*
X163582Y77756D01*
Y77559D01*
X163385Y77362D01*
X163188D01*
X163385D01*
X163582Y77165D01*
Y76968D01*
X163385Y76772D01*
X162991D01*
X162794Y76968D01*
X73819Y75787D02*
Y76968D01*
X74409D01*
X74606Y76771D01*
Y76378D01*
X74409Y76181D01*
X73819D01*
X74212D02*
X74606Y75787D01*
X75787Y76968D02*
X75000D01*
Y75787D01*
X75787D01*
X75000Y76378D02*
X75393D01*
X76968Y76771D02*
X76771Y76968D01*
X76377D01*
X76180Y76771D01*
Y76574D01*
X76377Y76378D01*
X76771D01*
X76968Y76181D01*
Y75984D01*
X76771Y75787D01*
X76377D01*
X76180Y75984D01*
X58858Y76771D02*
X58661Y76968D01*
X58268D01*
X58071Y76771D01*
Y76574D01*
X58268Y76378D01*
X58661D01*
X58858Y76181D01*
Y75984D01*
X58661Y75787D01*
X58268D01*
X58071Y75984D01*
X59252Y76968D02*
Y75787D01*
X59842D01*
X60039Y75984D01*
Y76771D01*
X59842Y76968D01*
X59252D01*
X60432Y75787D02*
Y76574D01*
X60826Y76968D01*
X61220Y76574D01*
Y75787D01*
Y76378D01*
X60432D01*
X66732Y76771D02*
X66535Y76968D01*
X66142D01*
X65945Y76771D01*
Y76574D01*
X66142Y76378D01*
X66535D01*
X66732Y76181D01*
Y75984D01*
X66535Y75787D01*
X66142D01*
X65945Y75984D01*
X67913Y76771D02*
X67716Y76968D01*
X67322D01*
X67126Y76771D01*
Y75984D01*
X67322Y75787D01*
X67716D01*
X67913Y75984D01*
X68306Y76968D02*
Y75787D01*
X69094D01*
X23425Y23819D02*
X22638D01*
Y23228D01*
X23031Y23425D01*
X23228D01*
X23425Y23228D01*
Y22835D01*
X23228Y22638D01*
X22835D01*
X22638Y22835D01*
Y14763D02*
X22835Y14960D01*
X23228D01*
X23425Y14763D01*
Y14567D01*
X23228Y14370D01*
X23031D01*
X23228D01*
X23425Y14173D01*
Y13976D01*
X23228Y13780D01*
X22835D01*
X22638Y13976D01*
Y4921D02*
X23031D01*
X22835D01*
Y6102D01*
X22638Y5905D01*
X5708Y4921D02*
X4921D01*
X5708Y5708D01*
Y5905D01*
X5512Y6102D01*
X5118D01*
X4921Y5905D01*
X5512Y13780D02*
Y14960D01*
X4921Y14370D01*
X5708D01*
Y23819D02*
X5315Y23622D01*
X4921Y23228D01*
Y22835D01*
X5118Y22638D01*
X5512D01*
X5708Y22835D01*
Y23031D01*
X5512Y23228D01*
X4921D01*
X22638Y24606D02*
Y25787D01*
X23425Y24606D01*
Y25787D01*
X24606Y25590D02*
X24409Y25787D01*
X24015D01*
X23819Y25590D01*
Y24803D01*
X24015Y24606D01*
X24409D01*
X24606Y24803D01*
X22638Y16929D02*
X23425D01*
X23031D01*
Y15748D01*
X23819Y16929D02*
X24606Y15748D01*
Y16929D02*
X23819Y15748D01*
X23425Y7874D02*
X23228Y8071D01*
X22835D01*
X22638Y7874D01*
Y7086D01*
X22835Y6890D01*
X23228D01*
X23425Y7086D01*
Y7480D01*
X23031D01*
X23819Y6890D02*
Y8071D01*
X24606Y6890D01*
Y8071D01*
X24999D02*
Y6890D01*
X25590D01*
X25786Y7086D01*
Y7874D01*
X25590Y8071D01*
X24999D01*
X3937Y6890D02*
Y8071D01*
X4527D01*
X4724Y7874D01*
Y7480D01*
X4527Y7283D01*
X3937D01*
X4331D02*
X4724Y6890D01*
X5118Y8071D02*
X5905Y6890D01*
Y8071D02*
X5118Y6890D01*
X2953Y16732D02*
X3150Y16929D01*
X3543D01*
X3740Y16732D01*
Y16535D01*
X3543Y16338D01*
X3346D01*
X3543D01*
X3740Y16142D01*
Y15945D01*
X3543Y15748D01*
X3150D01*
X2953Y15945D01*
X4134Y16535D02*
X4527Y15748D01*
X4921Y16535D01*
X5314Y16732D02*
X5511Y16929D01*
X5905D01*
X6101Y16732D01*
Y16535D01*
X5905Y16338D01*
X5708D01*
X5905D01*
X6101Y16142D01*
Y15945D01*
X5905Y15748D01*
X5511D01*
X5314Y15945D01*
X2953Y25590D02*
X3150Y25787D01*
X3543D01*
X3740Y25590D01*
Y25393D01*
X3543Y25197D01*
X3346D01*
X3543D01*
X3740Y25000D01*
Y24803D01*
X3543Y24606D01*
X3150D01*
X2953Y24803D01*
X4134Y25393D02*
X4527Y24606D01*
X4921Y25393D01*
X5314Y25590D02*
X5511Y25787D01*
X5905D01*
X6101Y25590D01*
Y25393D01*
X5905Y25197D01*
X5708D01*
X5905D01*
X6101Y25000D01*
Y24803D01*
X5905Y24606D01*
X5511D01*
X5314Y24803D01*
X96457Y12795D02*
Y13976D01*
X96850Y13582D01*
X97244Y13976D01*
Y12795D01*
X98228Y13976D02*
X97834D01*
X97637Y13779D01*
Y12992D01*
X97834Y12795D01*
X98228D01*
X98425Y12992D01*
Y13779D01*
X98228Y13976D01*
X99605Y13779D02*
X99409Y13976D01*
X99015D01*
X98818Y13779D01*
Y13582D01*
X99015Y13386D01*
X99409D01*
X99605Y13189D01*
Y12992D01*
X99409Y12795D01*
X99015D01*
X98818Y12992D01*
X99999Y13976D02*
X100392D01*
X100196D01*
Y12795D01*
X99999D01*
X100392D01*
X81496Y13779D02*
X81299Y13976D01*
X80905D01*
X80709Y13779D01*
Y13582D01*
X80905Y13386D01*
X81299D01*
X81496Y13189D01*
Y12992D01*
X81299Y12795D01*
X80905D01*
X80709Y12992D01*
X82677Y13779D02*
X82480Y13976D01*
X82086D01*
X81889Y13779D01*
Y12992D01*
X82086Y12795D01*
X82480D01*
X82677Y12992D01*
X83070Y13976D02*
Y12795D01*
X83857D01*
X84251Y13976D02*
Y12795D01*
Y13189D01*
X85038Y13976D01*
X84448Y13386D01*
X85038Y12795D01*
X88583D02*
Y13976D01*
X88976Y13582D01*
X89370Y13976D01*
Y12795D01*
X89763Y13976D02*
X90157D01*
X89960D01*
Y12795D01*
X89763D01*
X90157D01*
X91535Y13779D02*
X91338Y13976D01*
X90944D01*
X90747Y13779D01*
Y13582D01*
X90944Y13386D01*
X91338D01*
X91535Y13189D01*
Y12992D01*
X91338Y12795D01*
X90944D01*
X90747Y12992D01*
X92518Y13976D02*
X92125D01*
X91928Y13779D01*
Y12992D01*
X92125Y12795D01*
X92518D01*
X92715Y12992D01*
Y13779D01*
X92518Y13976D01*
X72835Y12795D02*
Y13976D01*
X73622Y12795D01*
Y13976D01*
X74803Y13779D02*
X74606Y13976D01*
X74212D01*
X74015Y13779D01*
Y13582D01*
X74212Y13386D01*
X74606D01*
X74803Y13189D01*
Y12992D01*
X74606Y12795D01*
X74212D01*
X74015Y12992D01*
X75983Y13779D02*
X75787Y13976D01*
X75393D01*
X75196Y13779D01*
Y13582D01*
X75393Y13386D01*
X75787D01*
X75983Y13189D01*
Y12992D01*
X75787Y12795D01*
X75393D01*
X75196Y12992D01*
X138582Y75108D02*
X138386Y75305D01*
X137992D01*
X137795Y75108D01*
Y74321D01*
X137992Y74124D01*
X138386D01*
X138582Y74321D01*
X138976Y74124D02*
X139370D01*
X139173D01*
Y75305D01*
X138976Y75108D01*
X139960Y74321D02*
X140157Y74124D01*
X140550D01*
X140747Y74321D01*
Y75108D01*
X140550Y75305D01*
X140157D01*
X139960Y75108D01*
Y74911D01*
X140157Y74715D01*
X140747D01*
X147441Y75108D02*
X147244Y75305D01*
X146850D01*
X146653Y75108D01*
Y74321D01*
X146850Y74124D01*
X147244D01*
X147441Y74321D01*
X147834Y74124D02*
X148228D01*
X148031D01*
Y75305D01*
X147834Y75108D01*
X148818D02*
X149015Y75305D01*
X149409D01*
X149605Y75108D01*
Y74911D01*
X149409Y74715D01*
X149605Y74518D01*
Y74321D01*
X149409Y74124D01*
X149015D01*
X148818Y74321D01*
Y74518D01*
X149015Y74715D01*
X148818Y74911D01*
Y75108D01*
X149015Y74715D02*
X149409D01*
X42323Y62992D02*
X43504D01*
Y62402D01*
X43307Y62205D01*
X42913D01*
X42716Y62402D01*
Y62992D01*
Y62599D02*
X42323Y62205D01*
Y61024D02*
Y61811D01*
X43110Y61024D01*
X43307D01*
X43504Y61221D01*
Y61615D01*
X43307Y61811D01*
X70866Y48425D02*
Y48228D01*
X71260Y47834D01*
X71653Y48228D01*
Y48425D01*
X71260Y47834D02*
Y47244D01*
X72047D02*
X72440D01*
X72244D01*
Y48425D01*
X72047Y48228D01*
X158465Y35629D02*
Y34646D01*
X158661Y34449D01*
X159055D01*
X159252Y34646D01*
Y35629D01*
X159645Y34449D02*
X160039D01*
X159842D01*
Y35629D01*
X159645Y35433D01*
X173031Y61023D02*
X172834Y61220D01*
X172441D01*
X172244Y61023D01*
Y60236D01*
X172441Y60039D01*
X172834D01*
X173031Y60236D01*
X173425Y60039D02*
X173818D01*
X173622D01*
Y61220D01*
X173425Y61023D01*
X174409D02*
X174606Y61220D01*
X174999D01*
X175196Y61023D01*
Y60236D01*
X174999Y60039D01*
X174606D01*
X174409Y60236D01*
Y61023D01*
X157283D02*
X157086Y61220D01*
X156693D01*
X156496Y61023D01*
Y60236D01*
X156693Y60039D01*
X157086D01*
X157283Y60236D01*
X157677Y60039D02*
X158070D01*
X157874D01*
Y61220D01*
X157677Y61023D01*
X158661Y60039D02*
X159054D01*
X158858D01*
Y61220D01*
X158661Y61023D01*
X165157Y62008D02*
X164960Y62204D01*
X164567D01*
X164370Y62008D01*
Y61220D01*
X164567Y61024D01*
X164960D01*
X165157Y61220D01*
X165551D02*
X165748Y61024D01*
X166141D01*
X166338Y61220D01*
Y62008D01*
X166141Y62204D01*
X165748D01*
X165551Y62008D01*
Y61811D01*
X165748Y61614D01*
X166338D01*
X137598Y21653D02*
X137401Y21850D01*
X137008D01*
X136811Y21653D01*
Y20866D01*
X137008Y20669D01*
X137401D01*
X137598Y20866D01*
X137992Y20669D02*
X138385D01*
X138189D01*
Y21850D01*
X137992Y21653D01*
X139763Y21850D02*
X139369Y21653D01*
X138976Y21260D01*
Y20866D01*
X139172Y20669D01*
X139566D01*
X139763Y20866D01*
Y21063D01*
X139566Y21260D01*
X138976D01*
X137598Y56102D02*
X137401Y56299D01*
X137008D01*
X136811Y56102D01*
Y55315D01*
X137008Y55118D01*
X137401D01*
X137598Y55315D01*
X137992Y55118D02*
X138385D01*
X138189D01*
Y56299D01*
X137992Y56102D01*
X139763Y55118D02*
X138976D01*
X139763Y55905D01*
Y56102D01*
X139566Y56299D01*
X139172D01*
X138976Y56102D01*
X58858Y60718D02*
X58661Y60915D01*
X58268D01*
X58071Y60718D01*
Y59931D01*
X58268Y59734D01*
X58661D01*
X58858Y59931D01*
X59252Y60718D02*
X59448Y60915D01*
X59842D01*
X60039Y60718D01*
Y60521D01*
X59842Y60324D01*
X60039Y60127D01*
Y59931D01*
X59842Y59734D01*
X59448D01*
X59252Y59931D01*
Y60127D01*
X59448Y60324D01*
X59252Y60521D01*
Y60718D01*
X59448Y60324D02*
X59842D01*
X158166Y29542D02*
X157969Y29739D01*
X157576D01*
X157379Y29542D01*
Y28755D01*
X157576Y28558D01*
X157969D01*
X158166Y28755D01*
X158560Y28558D02*
X158953D01*
X158756D01*
Y29739D01*
X158560Y29542D01*
X159544Y29739D02*
X160331D01*
Y29542D01*
X159544Y28755D01*
Y28558D01*
X67503Y60718D02*
X67306Y60915D01*
X66912D01*
X66716Y60718D01*
Y59931D01*
X66912Y59734D01*
X67306D01*
X67503Y59931D01*
X67896Y60915D02*
X68683D01*
Y60718D01*
X67896Y59931D01*
Y59734D01*
X137598Y38385D02*
X137401Y38582D01*
X137008D01*
X136811Y38385D01*
Y37598D01*
X137008Y37402D01*
X137401D01*
X137598Y37598D01*
X137992Y37402D02*
X138385D01*
X138189D01*
Y38582D01*
X137992Y38385D01*
X139566Y37402D02*
Y38582D01*
X138976Y37992D01*
X139763D01*
X137598Y47244D02*
X137401Y47441D01*
X137008D01*
X136811Y47244D01*
Y46457D01*
X137008Y46260D01*
X137401D01*
X137598Y46457D01*
X137992Y46260D02*
X138385D01*
X138189D01*
Y47441D01*
X137992Y47244D01*
X138976D02*
X139172Y47441D01*
X139566D01*
X139763Y47244D01*
Y47047D01*
X139566Y46850D01*
X139369D01*
X139566D01*
X139763Y46653D01*
Y46457D01*
X139566Y46260D01*
X139172D01*
X138976Y46457D01*
X137598Y30512D02*
X137401Y30708D01*
X137008D01*
X136811Y30512D01*
Y29724D01*
X137008Y29528D01*
X137401D01*
X137598Y29724D01*
X137992Y29528D02*
X138385D01*
X138189D01*
Y30708D01*
X137992Y30512D01*
X139763Y30708D02*
X138976D01*
Y30118D01*
X139369Y30315D01*
X139566D01*
X139763Y30118D01*
Y29724D01*
X139566Y29528D01*
X139172D01*
X138976Y29724D01*
X40551Y30334D02*
Y29350D01*
X40748Y29154D01*
X41142D01*
X41338Y29350D01*
Y30334D01*
X41732Y30138D02*
X41929Y30334D01*
X42322D01*
X42519Y30138D01*
Y29941D01*
X42322Y29744D01*
X42125D01*
X42322D01*
X42519Y29547D01*
Y29350D01*
X42322Y29154D01*
X41929D01*
X41732Y29350D01*
X105315Y45472D02*
Y44488D01*
X105512Y44291D01*
X105905D01*
X106102Y44488D01*
Y45472D01*
X107283Y44291D02*
X106496D01*
X107283Y45079D01*
Y45275D01*
X107086Y45472D01*
X106693D01*
X106496Y45275D01*
X113215Y13780D02*
Y14960D01*
X113805D01*
X114002Y14763D01*
Y14370D01*
X113805Y14173D01*
X113215D01*
X113609D02*
X114002Y13780D01*
X115183Y14960D02*
X114396D01*
Y14370D01*
X114789Y14567D01*
X114986D01*
X115183Y14370D01*
Y13976D01*
X114986Y13780D01*
X114593D01*
X114396Y13976D01*
X128963Y13780D02*
Y14960D01*
X129554D01*
X129750Y14763D01*
Y14370D01*
X129554Y14173D01*
X128963D01*
X129357D02*
X129750Y13780D01*
X130734D02*
Y14960D01*
X130144Y14370D01*
X130931D01*
X42323Y57087D02*
X43504D01*
Y56496D01*
X43307Y56300D01*
X42913D01*
X42716Y56496D01*
Y57087D01*
Y56693D02*
X42323Y56300D01*
X43307Y55906D02*
X43504Y55709D01*
Y55316D01*
X43307Y55119D01*
X43110D01*
X42913Y55316D01*
Y55512D01*
Y55316D01*
X42716Y55119D01*
X42520D01*
X42323Y55316D01*
Y55709D01*
X42520Y55906D01*
X46260Y54134D02*
Y55315D01*
X46850D01*
X47047Y55118D01*
Y54724D01*
X46850Y54527D01*
X46260D01*
X46653D02*
X47047Y54134D01*
X47441D02*
X47834D01*
X47637D01*
Y55315D01*
X47441Y55118D01*
X10630Y60236D02*
X10236D01*
X10433D01*
Y59252D01*
X10236Y59055D01*
X10039D01*
X9843Y59252D01*
X11614Y59055D02*
Y60236D01*
X11023Y59645D01*
X11810D01*
X39902Y79922D02*
X40099Y80118D01*
Y80512D01*
X39902Y80709D01*
X39115D01*
X38918Y80512D01*
Y80118D01*
X39115Y79922D01*
X40099Y78741D02*
X39902Y79134D01*
X39509Y79528D01*
X39115D01*
X38918Y79331D01*
Y78938D01*
X39115Y78741D01*
X39312D01*
X39509Y78938D01*
Y79528D01*
X39370Y72048D02*
X39567Y72244D01*
Y72638D01*
X39370Y72835D01*
X38583D01*
X38386Y72638D01*
Y72244D01*
X38583Y72048D01*
X39567Y70867D02*
Y71654D01*
X38976D01*
X39173Y71260D01*
Y71064D01*
X38976Y70867D01*
X38583D01*
X38386Y71064D01*
Y71457D01*
X38583Y71654D01*
X41338Y47441D02*
X41535Y47638D01*
Y48031D01*
X41338Y48228D01*
X40551D01*
X40354Y48031D01*
Y47638D01*
X40551Y47441D01*
X40354Y46457D02*
X41535D01*
X40945Y47048D01*
Y46260D01*
X39370Y39567D02*
X39567Y39764D01*
Y40157D01*
X39370Y40354D01*
X38583D01*
X38386Y40157D01*
Y39764D01*
X38583Y39567D01*
X39370Y39174D02*
X39567Y38977D01*
Y38583D01*
X39370Y38386D01*
X39173D01*
X38976Y38583D01*
Y38780D01*
Y38583D01*
X38779Y38386D01*
X38583D01*
X38386Y38583D01*
Y38977D01*
X38583Y39174D01*
X56102Y74016D02*
X56299Y74213D01*
Y74606D01*
X56102Y74803D01*
X55315D01*
X55118Y74606D01*
Y74213D01*
X55315Y74016D01*
X55118Y72835D02*
Y73622D01*
X55905Y72835D01*
X56102D01*
X56299Y73032D01*
Y73426D01*
X56102Y73622D01*
Y67126D02*
X56299Y67323D01*
Y67717D01*
X56102Y67913D01*
X55315D01*
X55118Y67717D01*
Y67323D01*
X55315Y67126D01*
X55118Y66733D02*
Y66339D01*
Y66536D01*
X56299D01*
X56102Y66733D01*
D17*
X20669Y75787D02*
Y75131D01*
Y75459D01*
X22637D01*
X22309Y75787D01*
X20866Y45079D02*
Y44423D01*
Y44751D01*
X22834D01*
X22506Y45079D01*
X20866Y42455D02*
X22834D01*
X21850Y43439D01*
Y42127D01*
M02*
